<?xml version="1.0" standalone="no"?><!DOCTYPE svg PUBLIC "-//W3C//DTD SVG 1.1//EN" "http://www.w3.org/Graphics/SVG/1.1/DTD/svg11.dtd"><svg t="1538987846910" class="icon" style="" viewBox="0 0 1024 1024" version="1.1" xmlns="http://www.w3.org/2000/svg" p-id="8362" xmlns:xlink="http://www.w3.org/1999/xlink" width="200" height="200"><defs><style type="text/css"></style></defs><path d="M514.048 6.84032C235.45856 6.84032 8.86784 233.43104 8.86784 512c0 278.50752 226.59072 505.15968 505.18016 505.15968C792.59648 1017.15968 1019.20768 790.528 1019.20768 512 1019.20768 233.43104 792.59648 6.84032 514.048 6.84032zM514.048 978.80064C256.67584 978.80064 47.32928 769.39264 47.32928 512c0-257.35168 209.34656-466.75968 466.71872-466.75968S980.80768 254.64832 980.80768 512C980.80768 769.39264 771.39968 978.80064 514.048 978.80064z" p-id="8363" fill="#1afa29"></path><path d="M179.44576 339.41504l0 386.23232 73.13408 0L252.57984 573.6448l183.9104 0 61.78816-61.66528 0-111.86176-60.70272-60.70272L179.44576 339.41504zM425.14432 473.86624l-26.76736 26.624-145.79712 0 0-87.9616 146.26816 0 26.29632 26.15296L425.14432 473.86624z" p-id="8364" fill="#1afa29"></path><path d="M781.25056 338.45248 781.25056 493.79328 603.91424 493.79328 603.91424 338.45248 527.42144 338.45248 527.42144 725.64736 603.91424 725.64736 603.91424 570.28608 781.25056 570.28608 781.25056 725.64736 857.25184 725.64736 857.25184 338.45248Z" p-id="8365" fill="#1afa29"></path></svg>