<?xml version="1.0" standalone="no"?><!DOCTYPE svg PUBLIC "-//W3C//DTD SVG 1.1//EN" "http://www.w3.org/Graphics/SVG/1.1/DTD/svg11.dtd"><svg t="1538987819415" class="icon" style="" viewBox="0 0 1063 1024" version="1.1" xmlns="http://www.w3.org/2000/svg" p-id="7597" xmlns:xlink="http://www.w3.org/1999/xlink" width="207.6171875" height="200"><defs><style type="text/css"></style></defs><path d="M335.36 509.912615c-27.490462 0-71.049846-5.828923-108.071385-36.706461-30.995692-25.836308-34.185846-55.414154-31.350153-75.657846 2.875077-20.834462 12.603077-35.603692 13.666461-37.218462l29.853539 19.692308 0.039384-0.118154c-2.481231 3.780923-23.276308 37.769846 10.988308 66.323692 45.095385 37.612308 104.763077 26.978462 105.353846 26.860308a17.92 17.92 0 0 1 20.992 14.060308 17.723077 17.723077 0 0 1-14.296615 20.676923 159.035077 159.035077 0 0 1-27.175385 2.087384z m337.053538-307.908923c-5.868308-0.708923-10.003692-6.301538-9.64923-12.603077 0.157538-2.835692 0.236308-5.710769 0.236307-8.585846 0-97.673846-86.449231-176.836923-193.102769-176.836923-3.150769 0-6.340923 0.078769-9.491692 0.196923a29.617231 29.617231 0 0 0-10.515692 0.748308C352.649846 14.099692 276.834462 89.324308 276.834462 180.775385c0 9.097846 0.787692 18.038154 2.244923 26.781538 1.063385 6.340923-2.756923 12.524308-8.664616 13.784615-111.931077 23.04-193.890462 97.595077-193.890461 186.052924 0 106.850462 119.571692 193.457231 267.067077 193.45723h0.157538c8.034462 0 13.508923 8.546462 10.515692 16.46277-78.493538 207.793231-230.675692 322.402462-342.685538 381.558153-11.067077 5.868308-6.183385 22.646154 4.647385 22.646154a11.657846 11.657846 0 0 0 3.308307-0.512c159.350154-46.867692 280.851692-118.902154 373.366154-198.774154 5.632-4.844308 11.145846-9.767385 16.580923-14.690461a20.164923 20.164923 0 0 0 6.065231-20.007385 201.964308 201.964308 0 0 1-6.537846-54.429538c0.039385-2.835692-3.426462-4.214154-5.435077-2.205539a836.923077 836.923077 0 0 1-79.005539 70.892308 755.948308 755.948308 0 0 0 85.779693-163.958154 70.734769 70.734769 0 0 0-8.388923-65.811692 71.286154 71.286154 0 0 0-58.210462-30.089846h-0.157538a293.888 293.888 0 0 1-86.173539-12.524308 227.879385 227.879385 0 0 1-67.229538-32.689231c-20.086154-14.572308-53.838769-45.528615-53.83877-89.324307 0-33.476923 19.889231-59.273846 36.588308-75.067077 26.820923-25.324308 65.772308-44.268308 109.725539-53.32677a70.498462 70.498462 0 0 0 55.453538-81.053538 104.172308 104.172308 0 0 1-1.457231-17.171692c0-28.553846 11.736615-56.162462 33.083077-77.666462a139.027692 139.027692 0 0 1 85.858462-39.581538l3.584-0.669539 3.938461 0.157539c2.363077-0.118154 4.647385-0.157538 6.774154-0.157539 73.491692 0 133.277538 52.893538 133.277539 117.917539 0 1.732923-0.078769 3.544615-0.157539 5.395692a71.010462 71.010462 0 0 0 62.070154 74.279385c50.215385 6.104615 85.188923 17.092923 106.889846 33.516307 14.651077 11.106462 31.507692 29.932308 31.507692 77.233231 0 22.646154-3.859692 41.550769-11.421538 56.201846-6.262154 12.209231-15.36 21.976615-27.884308 29.932308-27.451077 17.526154-70.616615 26.387692-128.236307 26.387692-4.804923 0-9.767385-0.157538-14.808616-0.472615a70.695385 70.695385 0 0 0-67.899077 38.715077c-3.426462 6.813538-6.931692 13.548308-10.555077 20.243692-3.150769 5.828923 1.969231 12.603077 8.507077 11.421538a157.656615 157.656615 0 0 1 47.419077-1.063384 7.995077 7.995077 0 0 0 8.192-4.253539v-0.039384a11.027692 11.027692 0 0 1 10.555077-6.222769c6.144 0.393846 12.327385 0.590769 18.589539 0.590769 125.558154 0 227.367385-38.439385 227.367384-171.441231 0-118.035692-82.668308-156.041846-190.897231-169.235692z" p-id="7598" fill="#1afa29"></path><path d="M1021.755077 854.252308H942.08l44.465231-48.049231c7.483077-7.876923 12.760615-14.139077 15.872-18.707692a27.017846 27.017846 0 0 0 4.726154-15.596308 20.598154 20.598154 0 0 0-6.813539-15.281231 23.315692 23.315692 0 0 0-16.856615-6.537846c-6.695385 0-12.288 2.363077-16.738462 7.089231-4.489846 4.726154-7.049846 11.421538-7.640615 20.204307h-12.957539c0.512-12.288 4.411077-22.055385 11.697231-29.262769a36.115692 36.115692 0 0 1 26.427077-10.830769c10.358154 0 18.904615 3.347692 25.718154 10.043077 6.813538 6.695385 10.24 14.926769 10.24 24.576 0 7.089231-1.890462 13.666462-5.632 19.810461a138.24 138.24 0 0 1-16.974769 21.346462l-26.230154 28.238769h50.412308v12.957539zM655.084308 821.208615c-22.331077 34.028308-53.011692 51.042462-92.041846 51.042462-32.925538 0-59.943385-12.327385-80.935385-36.942769-21.031385-24.615385-31.547077-55.729231-31.547077-93.341539 0-23.236923 4.883692-44.740923 14.611692-64.433231 9.767385-19.692308 23.236923-35.170462 40.487385-46.355692 17.250462-11.185231 35.84-16.777846 55.847385-16.777846 19.968 0 37.848615 4.529231 53.68123 13.587692 15.832615 9.058462 29.026462 22.331077 39.620923 39.778462l-18.747077 17.132308c-19.692308-28.199385-44.032-42.299077-73.019076-42.299077-23.630769 0-44.071385 9.846154-61.203693 29.538461-17.132308 19.692308-25.718154 43.835077-25.718154 72.349539 0 28.553846 8.388923 52.381538 25.16677 71.522461 16.738462 19.140923 38.478769 28.711385 65.181538 28.711385s49.900308-13.548308 69.592615-40.644923l19.02277 17.132307z m135.246769-206.808615c20.243692 0 38.912 5.632 55.926154 16.935385 17.092923 11.303385 30.483692 26.939077 40.251077 46.867692a145.723077 145.723077 0 0 1 14.611692 64.984615 146.904615 146.904615 0 0 1-14.493538 64.945231 117.011692 117.011692 0 0 1-39.778462 46.985846 96.098462 96.098462 0 0 1-54.941538 17.132308 98.067692 98.067692 0 0 1-55.256616-16.935385 115.160615 115.160615 0 0 1-40.054154-46.710154 145.841231 145.841231 0 0 1-14.493538-64.787692c0-23.394462 4.804923-45.095385 14.493538-65.142154 9.649231-20.007385 22.843077-35.721846 39.620923-47.143384 16.738462-11.421538 34.776615-17.132308 54.114462-17.132308z m0.866461 229.612308c23.630769 0 43.716923-9.452308 60.061539-28.514462 16.384-19.022769 24.576-42.850462 24.576-71.522461 0-28.632615-8.270769-52.696615-24.851692-72.152616-16.541538-19.495385-36.509538-29.223385-59.785847-29.223384-23.867077 0-43.795692 9.806769-59.82523 29.380923-15.990154 19.574154-24.024615 43.401846-24.024616 71.522461 0 28.081231 8.270769 51.869538 24.733539 71.325539 16.502154 19.495385 36.194462 29.223385 59.076923 29.223384z" p-id="7599" fill="#1afa29"></path></svg>