<?xml version="1.0" standalone="no"?><!DOCTYPE svg PUBLIC "-//W3C//DTD SVG 1.1//EN" "http://www.w3.org/Graphics/SVG/1.1/DTD/svg11.dtd"><svg t="1538987608692" class="icon" style="" viewBox="0 0 1024 1024" version="1.1" xmlns="http://www.w3.org/2000/svg" p-id="1978" xmlns:xlink="http://www.w3.org/1999/xlink" width="200" height="200"><defs><style type="text/css"></style></defs><path d="M658.324211 300.732632A260.311579 260.311579 0 0 0 700.631579 296.421053a152.522105 152.522105 0 0 0 134.736842-147.941053V134.736842l-12.126316-8.08421a215.578947 215.578947 0 0 0-156.294737-21.018948 204.261053 204.261053 0 0 0-138.778947 118.298948l-5.658947 14.282105 9.431579 12.126316a158.989474 158.989474 0 0 0 126.383158 50.391579z m19.402105-142.282106a180.277895 180.277895 0 0 1 101.861052 6.467369 98.088421 98.088421 0 0 1-87.309473 79.225263 142.012632 142.012632 0 0 1-105.364211-16.168421 142.012632 142.012632 0 0 1 90.812632-69.524211zM485.052632 565.894737a26.947368 26.947368 0 0 0 0-53.894737h-80.842106a53.894737 53.894737 0 0 0-53.894737 53.894737v161.68421a53.894737 53.894737 0 0 0 53.894737 53.894737h80.842106a26.947368 26.947368 0 0 0 0-53.894737h-80.842106v-53.894736h80.842106a26.947368 26.947368 0 0 0 0-53.894737h-80.842106v-53.894737zM565.894737 565.894737v161.68421a53.894737 53.894737 0 0 0 53.894737 53.894737h80.842105a26.947368 26.947368 0 0 0 0-53.894737h-80.842105v-161.68421h80.842105a26.947368 26.947368 0 0 0 0-53.894737h-80.842105a53.894737 53.894737 0 0 0-53.894737 53.894737z" p-id="1979" fill="#1afa29"></path><path d="M865.010526 423.882105l-208.033684-29.103158a889.263158 889.263158 0 0 0-91.082105-7.275789A134.736842 134.736842 0 0 0 491.52 269.473684l-9.431579-4.581052c-7.545263-17.515789-56.858947-120.724211-169.498947-143.36a267.317895 267.317895 0 0 0-192.673685 25.6L107.789474 154.947368v14.551579A186.475789 186.475789 0 0 0 271.898947 350.315789a323.368421 323.368421 0 0 0 53.894737 4.581053A212.884211 212.884211 0 0 0 458.105263 313.397895l8.623158 4.311579A80.842105 80.842105 0 0 1 512 386.964211a889.263158 889.263158 0 0 0-107.789474 8.623157l-192.673684 26.947369a53.894737 53.894737 0 0 0-45.810526 58.475789l16.976842 173.271579A323.368421 323.368421 0 0 0 504.993684 943.157895h67.907369a323.368421 323.368421 0 0 0 321.482105-287.528421l16.976842-173.002106a53.894737 53.894737 0 0 0-46.349474-58.745263zM280.791579 296.421053a131.503158 131.503158 0 0 1-117.76-111.292632 235.789474 235.789474 0 0 1 138.778947-10.778947 191.595789 191.595789 0 0 1 123.149474 97.010526 182.703158 182.703158 0 0 1-144.168421 25.061053zM840.757895 649.431579a269.473684 269.473684 0 0 1-267.856842 239.831579h-67.907369a269.473684 269.473684 0 0 1-267.856842-239.023158l-16.707368-173.271579 192.673684-26.947368a835.368421 835.368421 0 0 1 236.328421 0l208.033684 29.103158z" p-id="1980" fill="#1afa29"></path></svg>