<?xml version="1.0" standalone="no"?><!DOCTYPE svg PUBLIC "-//W3C//DTD SVG 1.1//EN" "http://www.w3.org/Graphics/SVG/1.1/DTD/svg11.dtd"><svg t="1538987628373" class="icon" style="" viewBox="0 0 1024 1024" version="1.1" xmlns="http://www.w3.org/2000/svg" p-id="2166" xmlns:xlink="http://www.w3.org/1999/xlink" width="200" height="200"><defs><style type="text/css"></style></defs><path d="M592.842105 754.526316m-53.894737 0a53.894737 53.894737 0 1 0 107.789474 0 53.894737 53.894737 0 1 0-107.789474 0Z" p-id="2167" fill="#1afa29"></path><path d="M471.578947 633.263158m-40.421052 0a40.421053 40.421053 0 1 0 80.842105 0 40.421053 40.421053 0 1 0-80.842105 0Z" p-id="2168" fill="#1afa29"></path><path d="M862.315789 843.452632L646.736842 458.105263V161.684211h26.947369a26.947368 26.947368 0 0 0 0-53.894737H350.315789a26.947368 26.947368 0 0 0 0 53.894737h26.947369v296.421052L161.684211 843.452632A53.894737 53.894737 0 0 0 212.614737 916.210526h598.770526A53.894737 53.894737 0 0 0 862.315789 843.452632zM213.153684 862.315789l211.267369-377.263157 6.736842-12.39579V161.684211h161.68421v310.433684l6.736842 12.395789 211.267369 377.263158z" p-id="2169" fill="#1afa29"></path></svg>