<?xml version="1.0" standalone="no"?><!DOCTYPE svg PUBLIC "-//W3C//DTD SVG 1.1//EN" "http://www.w3.org/Graphics/SVG/1.1/DTD/svg11.dtd"><svg t="1538987555052" class="icon" style="" viewBox="0 0 1024 1024" version="1.1" xmlns="http://www.w3.org/2000/svg" p-id="1355" xmlns:xlink="http://www.w3.org/1999/xlink" width="200" height="200"><defs><style type="text/css"></style></defs><path d="M1017.1 666.4c-9.1-3.8-18.6-7.8-28.4-11.9-114.2-35.8-121.4 67.3-271.4 28.6C643.5 664 604.2 659 576.5 661c42.6-22.4 71.7-67.1 71.7-118.5 0-43.6-20.9-83.9-56.3-109V105.8c0-41.8-34-75.8-75.8-75.8h-3.4c-41.8 0-75.8 34-75.8 75.8v327.7c-35.4 25.1-56.3 65.5-56.3 109 0 73.8 60 133.9 133.9 133.9 1 0 2-0.1 2.9-0.1-0.8 0.3-1.6 0.6-2.4 0.8l-59.2 14.5c-48.9 7.5-126 10.3-263.5-1.6C79.1 680.4 89.6 629.2 0 659.3l0.4 17.1c1 2 2 3.9 3 6 2.5 4.8 5.1 9.7 7.7 14.4 0.7 1 1.2 2.1 1.8 3.1 5.4 9.4 11 18.7 16.9 27.8 1 1.6 2.1 3.3 3.1 4.8 2.9 4.4 5.9 8.8 8.9 13.1 1.3 2 2.7 3.9 4.2 5.9 9.8 13.6 20 26.7 31 39.3l5.5 6.3c3.3 3.7 6.4 7.2 9.8 10.9 2 2.2 4.1 4.3 6.1 6.4 5.6 5.9 11.4 11.6 17.3 17.2 2.3 2.3 4.7 4.6 7.2 6.8 3.3 3 6.5 6 9.9 8.9 2.7 2.4 5.4 4.7 8.1 7.1l9.8 8.2c3.8 3 7.6 6 11.4 8.9 4.6 3.5 9.1 6.9 13.7 10.3 3.7 2.6 7.2 5.2 11 7.7 3.1 2.2 6.3 4.3 9.5 6.4 3.8 2.5 7.7 5 11.6 7.4 2.9 1.8 5.7 3.7 8.6 5.4 6.4 3.8 12.8 7.4 19.2 11.1 2.7 1.6 5.5 3 8.4 4.4 4.6 2.4 9.1 4.8 13.9 7.1 2.9 1.4 5.7 2.9 8.8 4.2 5.7 2.7 11.4 5.3 17.2 7.8 2 0.9 3.9 1.7 6 2.6 6.9 2.9 14 5.6 21 8.4 2.6 1 5.4 2 8 2.9 5.5 2 11.1 3.8 16.7 5.6l7.5 2.4c7.8 2.4 15.6 4.6 23.5 6.7l5.1 1.2c6.5 1.7 13.2 3.1 19.9 4.6l7.8 1.6c6.7 1.3 13.4 2.5 20.1 3.5 1.8 0.3 3.5 0.7 5.4 0.9 8.4 1.3 16.7 2.4 25.2 3.3 2.2 0.3 4.4 0.4 6.7 0.7 6.7 0.6 13.3 1.2 20 1.6 2.5 0.1 5 0.3 7.6 0.4 8.8 0.4 17.4 0.7 26.3 0.7 8.8 0 17.5-0.3 26.1-0.7l7.4-0.4c6.9-0.4 13.7-0.9 20.5-1.6 2-0.1 4.1-0.4 6-0.5 8.5-0.9 16.9-2 25.2-3.3 2-0.3 3.9-0.7 5.9-0.9 6.6-1 13.2-2.2 19.7-3.5 2.5-0.5 4.8-0.9 7.3-1.4 7.8-1.7 15.5-3.4 23.3-5.4l1.6-0.4c7.9-2.1 15.8-4.3 23.7-6.7l7.5-2.3c5.9-2 11.8-3.9 17.6-6 2.2-0.8 4.3-1.6 6.5-2.4 7.4-2.7 14.9-5.7 22.2-8.8 2.2-0.9 4.3-1.8 6.4-2.9 5.5-2.4 10.9-4.8 16.3-7.3 2.6-1.2 5.2-2.5 7.7-3.7 6-3 11.9-6 17.8-9.1l5.9-3.1c6.1-3.4 12.2-6.9 18.3-10.5 2.6-1.6 5.2-3.3 7.8-4.8 4.5-2.8 8.9-5.7 13.3-8.6 2.5-1.7 5-3.3 7.4-5 6.1-4.2 12.2-8.5 18.2-12.9 2.5-1.8 4.8-3.8 7.3-5.6 3.9-3 7.8-6.1 11.8-9.3 2.7-2.2 5.4-4.4 8.1-6.7 4-3.4 8-6.8 11.9-10.3 3.4-3 6.7-6 9.9-9 4.1-3.8 8-7.4 11.9-11.4 2.6-2.6 5.2-5.2 7.8-8l9-9.4c2.2-2.5 4.8-5.2 7.3-8 4.7-5.2 9.3-10.4 13.7-15.9 2.5-2.9 4.7-5.9 7.1-8.9 2.6-3.3 5.2-6.5 7.7-9.8 2.5-3.1 4.8-6.4 7.3-9.7 2.5-3.4 4.9-6.9 7.3-10.3 3.5-5 6.9-10.1 10.3-15.2 2.5-3.8 5-7.6 7.3-11.4 2.2-3.5 4.3-7.1 6.4-10.6l5.9-10.2c2-3.5 4.1-7.2 6-10.7 3.3-6.1 9.4-18.4 9.4-18.4l-6.7-3zM402.7 542.5c0-38.1 19.1-73.1 51.2-93.9l5.1-3.3V105.8c0-29.5 24-53.6 53.6-53.6h3.6c29.5 0 53.6 24 53.6 53.6v339.6l5.1 3.3c32.1 20.8 51.2 55.8 51.2 93.9 0 61.6-50.1 111.7-111.7 111.7-61.6-0.1-111.7-50.2-111.7-111.8z m0 0" fill="#1afa29" p-id="1356"></path><path d="M538.4 486.3V233.8c0-13.2-10.7-24-24-24-13.2 0-24 10.7-24 24v252.6c-8.1 3.2-15.6 8.1-21.8 14.3-12 12-19 28.9-19 45.8 0 17 7 33.8 19 45.8s28.9 19 45.8 19c17 0 33.8-7 45.8-19s19-28.9 19-45.8c0-17-7-33.8-19-45.8-6.2-6.3-13.7-11.1-21.8-14.4zM329.1 120.9h62.5c4 0 7.3-3.3 7.4-7.4 0-2-0.8-3.9-2.2-5.2-1.4-1.4-3.3-2.2-5.2-2.2h-62.5c-2 0-3.9 0.8-5.2 2.2-1.4 1.4-2.2 3.3-2.2 5.2 0 2 0.8 3.9 2.2 5.2 1.4 1.4 3.3 2.2 5.2 2.2z m20.4 35.1c-2 0-3.9 0.8-5.2 2.2-1.4 1.4-2.2 3.3-2.2 5.2 0 2 0.8 3.9 2.2 5.2 1.4 1.4 3.3 2.2 5.2 2.2h42.1c4 0 7.3-3.3 7.4-7.4 0-2-0.8-3.9-2.2-5.2-1.4-1.4-3.3-2.2-5.2-2.2h-42.1z m-20.4 64.7h62.5c4 0 7.4-3.3 7.4-7.4 0-2-0.8-3.9-2.2-5.2-1.4-1.4-3.3-2.2-5.2-2.2h-62.5c-2 0-3.9 0.8-5.2 2.2-1.4 1.4-2.2 3.3-2.2 5.2 0 2 0.8 3.9 2.2 5.2 1.4 1.5 3.3 2.2 5.2 2.2z m20.4 35.2c-2 0-3.9 0.8-5.2 2.2-1.4 1.4-2.2 3.3-2.2 5.2 0 2 0.8 3.9 2.2 5.2 1.4 1.4 3.3 2.2 5.2 2.2h42.1c4 0 7.3-3.3 7.4-7.4 0-2-0.8-3.9-2.2-5.2-1.4-1.4-3.3-2.2-5.2-2.2h-42.1z m-20.4 64.8h62.5c4 0 7.4-3.3 7.4-7.4 0-2-0.8-3.9-2.2-5.2-1.4-1.4-3.3-2.2-5.2-2.2h-62.5c-2 0-3.9 0.8-5.2 2.2-1.4 1.4-2.2 3.3-2.2 5.2 0 2 0.8 3.9 2.2 5.2 1.4 1.4 3.3 2.2 5.2 2.2z m0 0" fill="#1afa29" p-id="1357"></path></svg>