<?xml version="1.0" standalone="no"?><!DOCTYPE svg PUBLIC "-//W3C//DTD SVG 1.1//EN" "http://www.w3.org/Graphics/SVG/1.1/DTD/svg11.dtd"><svg t="1538987702933" class="icon" style="" viewBox="0 0 1024 1024" version="1.1" xmlns="http://www.w3.org/2000/svg" p-id="3500" xmlns:xlink="http://www.w3.org/1999/xlink" width="200" height="200"><defs><style type="text/css"></style></defs><path d="M804 569.5c-12.7 0-23.1-10.3-23.1-23.1 0-149-121.2-270.2-270.2-270.2S240.5 397.4 240.5 546.4c0 12.7-10.3 23.1-23.1 23.1-12.7 0-23.1-10.3-23.1-23.1 0-174.4 141.9-316.3 316.3-316.3C685.1 230.1 827 372 827 546.4c0 12.7-10.3 23.1-23 23.1z m0 0" p-id="3501" fill="#1afa29"></path><path d="M279.9 918.6c-5.8 1.1-12 0.1-17.3-3.5-99.4-66.6-166.9-167.9-190-285.3-23.2-117.3 0.7-236.7 67.3-336.1 66.6-99.4 167.9-166.9 285.2-190.1 117.4-23.2 236.7 0.7 336.1 67.3 10.6 7.1 13.4 21.4 6.3 32-7.1 10.6-21.4 13.4-32 6.3-89.1-59.6-196.2-81-301.5-60.2-105.3 20.8-196.1 81.3-255.8 170.5-59.7 89.1-81.2 196.2-60.4 301.4 20.8 105.3 81.3 196.1 170.5 255.8 10.6 7.1 13.4 21.4 6.3 32-3.5 5.4-8.9 8.7-14.7 9.9z m0 0" p-id="3502" fill="#1afa29"></path><path d="M270.3 173.3c1.4-5.7 5-10.9 10.5-14.2 102.4-61.8 222.8-80 338.9-51.2 116.1 28.8 214.1 101 275.8 203.4 61.8 102.4 80 222.8 51.2 338.9-28.8 116.1-101 214.1-203.4 275.8-10.9 6.6-25.1 3.1-31.7-7.8-6.6-10.9-3.1-25.1 7.8-31.7 91.9-55.4 156.7-143.3 182.5-247.4 25.8-104.1 9.5-212.1-45.9-304S712.7 178.4 608.6 152.6c-104.1-25.8-212.1-9.5-304 45.9-10.9 6.6-25.1 3.1-31.7-7.8-3.2-5.4-4-11.7-2.6-17.4z m0 0" p-id="3503" fill="#1afa29"></path><path d="M512.1 549.8c-13.4 0-25.9 3.7-36.6 10L352.9 455c-9-7.7-22.6-6.7-30.4 2.4-7.7 9-6.7 22.6 2.4 30.4L446.7 592c-4.1 9.1-6.5 19.1-6.5 29.8 0 39.7 32.2 71.9 71.9 71.9s71.9-32.2 71.9-71.9c0-39.8-32.2-72-71.9-72z m0 0" p-id="3504" fill="#1afa29"></path></svg>