<?xml version="1.0" standalone="no"?><!DOCTYPE svg PUBLIC "-//W3C//DTD SVG 1.1//EN" "http://www.w3.org/Graphics/SVG/1.1/DTD/svg11.dtd"><svg t="1538987797729" class="icon" style="" viewBox="0 0 1024 1024" version="1.1" xmlns="http://www.w3.org/2000/svg" p-id="6845" xmlns:xlink="http://www.w3.org/1999/xlink" width="200" height="200"><defs><style type="text/css"></style></defs><path d="M492.623644 211.205689C273.794844 211.205689 95.800889 388.369067 95.800889 606.208 95.789511 824.024178 273.794844 1001.244444 492.623644 1001.244444c218.794667 0 396.845511-177.2544 396.845512-395.047822 0-217.793422-178.039467-394.990933-396.845512-394.990933z m0 719.121067c-179.552711 0-325.620622-145.408-325.620622-324.152889 0-178.710756 146.067911-324.107378 325.632-324.107378 179.541333 0 325.609244 145.430756 325.609245 324.096 0 178.767644-146.033778 324.152889-325.620623 324.152889z" p-id="6846" fill="#1afa29"></path><path d="M0 252.074667a108.885333 108.885333 0 0 0 54.727111 94.367289 109.909333 109.909333 0 0 0 109.476978 0 108.885333 108.885333 0 0 0 54.738489-94.367289c0-60.188444-49.015467-108.976356-109.4656-108.976356C49.015467 143.098311 0 191.886222 0 252.074667zM752.628622 224.824889c0 45.147022 36.750222 81.737956 82.102045 81.737955 45.340444 0 82.102044-36.590933 82.102044-81.726577 0-45.147022-36.750222-81.737956-82.102044-81.737956s-82.102044 36.590933-82.102045 81.737956zM916.832711 81.806222c0 26.328178 21.447111 47.672889 47.900445 47.672889C991.175111 129.479111 1012.622222 108.1344 1012.622222 81.806222 1012.622222 55.478044 991.175111 34.133333 964.721778 34.133333c-26.441956 0-47.889067 21.344711-47.889067 47.672889zM273.681067 102.240711a40.96 40.96 0 0 0 41.051022 40.8576 40.96 40.96 0 0 0 41.051022-40.8576 40.834844 40.834844 0 0 0-20.525511-35.384889 41.221689 41.221689 0 0 0-41.051022 0 40.834844 40.834844 0 0 0-20.525511 35.384889zM376.456533 442.766222c-49.538844 0-88.1664 13.767111-115.894044 41.324089-27.761778 27.568356-41.619911 66.036622-41.619911 115.518578 0 35.384889 6.997333 64.910222 21.014755 88.439467 13.994667 23.597511 32.267378 40.812089 54.829511 51.712 22.528 10.820267 51.006578 16.304356 85.412978 16.304355 33.837511 0 62.099911-6.291911 84.7872-18.909867a128.625778 128.625778 0 0 0 52.0192-52.895288c11.9808-22.687289 17.999644-51.700622 17.999645-87.131023 0-48.787911-13.744356-86.721422-41.221689-113.7664-27.4432-27.101867-66.571378-40.595911-117.327645-40.595911z m47.638756 223.630222c-11.127467 13.084444-26.783289 19.615289-47.012978 19.615289-19.717689 0-35.259733-6.656-46.6944-20.059022-11.4688-13.391644-17.180444-35.328-17.180444-65.9456 0-30.833778 5.779911-52.952178 17.3056-66.321067 11.502933-13.357511 26.749156-20.059022 45.784177-20.059022 19.785956 0 35.498667 6.576356 47.138134 19.751822 11.559822 13.141333 17.385244 33.985422 17.385244 62.532267-0.056889 33.860267-5.632 57.366756-16.725333 70.485333z m214.698667 29.445689c3.811556-3.072 11.377778-9.762133 22.641777-17.555911 19.000889-13.300622 32.119467-26.134756 39.332978-37.239466 7.179378-11.150222 10.808889-23.131022 10.808889-35.305245a54.590578 54.590578 0 0 0-9.4208-31.266133 55.887644 55.887644 0 0 0-25.873067-20.662045c-10.990933-4.471467-26.339556-6.7584-46.068622-6.7584-18.932622 0-33.712356 2.321067-44.418844 7.008711a55.523556 55.523556 0 0 0-24.826311 20.252445c-5.870933 8.760889-9.898667 21.003378-12.105956 36.716089l56.183467 4.528355c1.536-11.298133 4.596622-19.205689 9.136355-23.688533 4.687644-4.516978 11.025067-6.940444 17.544534-6.701511 6.906311 0 12.606578 2.161778 17.180444 6.485333 4.4032 4.027733 6.872178 9.728 6.803911 15.678578 0 5.632-2.309689 11.639467-6.872178 17.897244-4.630756 6.291911-15.132444 15.473778-31.5392 27.579734-26.908444 19.842844-45.215289 34.486044-55.011555 48.9472-9.773511 14.586311-15.633067 44.100267-17.555911 44.100266h153.668266v-35.271111h-72.977066c5.074489 0 9.557333-11.6736 13.368889-14.7456z" p-id="6847" fill="#1afa29"></path></svg>