<?xml version="1.0" standalone="no"?><!DOCTYPE svg PUBLIC "-//W3C//DTD SVG 1.1//EN" "http://www.w3.org/Graphics/SVG/1.1/DTD/svg11.dtd"><svg t="1538987675849" class="icon" style="" viewBox="0 0 1024 1024" version="1.1" xmlns="http://www.w3.org/2000/svg" p-id="2707" xmlns:xlink="http://www.w3.org/1999/xlink" width="200" height="200"><defs><style type="text/css"></style></defs><path d="M761.400889 824.843378c-107.337956 0-194.343822-87.04-194.343822-194.400711 0-154.874311 135.953067-294.6048 180.417422-336.1792l0.4096 0.375466a18.909867 18.909867 0 0 1 27.716267-0.273066C820.360533 335.712711 955.733333 473.747911 955.733333 630.442667c0 107.360711-87.005867 194.400711-194.332444 194.400711z m13.346133-452.232534l-0.056889 0.056889a16.088178 16.088178 0 0 0-25.634133 0l-0.443733-0.386844c-34.2016 37.819733-125.269333 148.753067-125.269334 257.615644 0 76.162844 61.804089 137.910044 138.057956 137.910045s138.057956-61.7472 138.057955-137.910045c0-111.047111-90.077867-219.636622-124.700444-257.285689z m5.154134 348.694756h-3.800178a104.448 104.448 0 0 1-100.1472-133.8368h0.455111a27.989333 27.989333 0 0 1 54.146844 9.955556c0 2.594133-1.900089 8.624356-1.900089 19.456a47.445333 47.445333 0 0 0 51.245512 47.3088v0.159288a28.4672 28.4672 0 0 1 0 56.957156z m-339.717689 40.812089c9.250133 0 18.477511-0.967111 27.522844-2.878578v0.170667a28.455822 28.455822 0 0 1 6.644622 56.5248v0.056889c-11.264 2.048-22.710044 3.072-34.167466 3.072-104.812089 0-189.781333-84.992-189.781334-189.838223 0-14.5408 1.661156-29.047467 4.960711-43.2128a28.455822 28.455822 0 1 1 56.297245 8.0896h0.375467a133.006222 133.006222 0 0 0 22.550755 115.712 132.903822 132.903822 0 0 0 105.597156 52.303645z m164.169955-420.499911c-9.728 0-18.784711-4.983467-24.007111-13.198222l-0.341333 0.443733c-48.731022-71.964444-100.943644-124.802844-125.496889-148.525511-0.136533 0.159289-0.284444-0.648533-0.420978-0.500622a17.043911 17.043911 0 0 0-27.795911 0c-0.091022-0.091022-0.182044-0.170667-0.261689-0.273067-52.4288 51.8144-232.561778 244.736-232.561778 449.661155 0 136.305778 110.455467 246.795378 246.715734 246.795378a245.509689 245.509689 0 0 0 140.060444-43.611022 28.444444 28.444444 0 1 1 36.898133 43.235556c0.068267 0.091022 0.113778 0.182044 0.193423 0.273066A302.136889 302.136889 0 0 1 440.183467 932.977778C272.475022 932.977778 136.533333 796.9792 136.533333 629.225244 136.533333 377.742222 365.9776 151.779556 425.972622 96.984178l0.227556 0.216178a18.909867 18.909867 0 0 1 27.010844-0.978489l0.250311-0.261689c30.094222 27.0336 106.040889 99.521422 172.714667 198.428444l-0.2048 0.261689a28.4672 28.4672 0 0 1-21.617778 46.967467z" p-id="2708" fill="#1afa29"></path></svg>