<?xml version="1.0" standalone="no"?><!DOCTYPE svg PUBLIC "-//W3C//DTD SVG 1.1//EN" "http://www.w3.org/Graphics/SVG/1.1/DTD/svg11.dtd"><svg t="1538987662464" class="icon" style="" viewBox="0 0 1024 1024" version="1.1" xmlns="http://www.w3.org/2000/svg" p-id="2385" xmlns:xlink="http://www.w3.org/1999/xlink" width="200" height="200"><defs><style type="text/css"></style></defs><path d="M513.408 1024c-144.768 0-262.272-117.184-262.272-261.12 0-98.24 67.328-174.08 113.92-216.192L365.056 147.456c0-81.28 66.112-147.392 147.392-147.392s147.392 66.112 147.392 147.392l0 400.64c77.568 45.056 112.96 120.704 112.96 214.784C772.8 906.816 656.32 1024 513.408 1024M512.448 62.144c-47.04 0-85.312 38.272-85.312 85.312l0 415.552c0 10.624-5.632 20.48-14.592 26.112C366.72 618.432 313.152 681.344 313.152 762.88c0 109.696 89.856 199.04 200.384 199.04 108.672 0 197.056-89.344 197.056-199.04 0-54.336-16.576-127.744-96.256-169.28C604.032 588.288 597.76 577.664 597.76 566.144L597.76 147.456C597.76 100.416 559.552 62.144 512.448 62.144" p-id="2386" fill="#1afa29"></path><path d="M514.816 936.128c-8.576 0-15.552-6.912-15.552-15.552 0-8.576 6.912-15.552 15.552-15.552 58.368 0 111.68-36.48 132.672-91.008 3.136-7.936 12.032-11.904 20.032-8.832 8.064 3.136 12.032 12.032 8.96 20.032C650.88 891.584 585.856 936.128 514.816 936.128" p-id="2387" fill="#1afa29"></path><path d="M672 791.488c-0.384 0-0.896-0.064-1.28-0.128-8.576-0.768-14.912-8.128-14.272-16.704 0.32-3.968 0.512-7.808 0.512-11.84 0-8.64 6.912-15.488 15.488-15.488s15.488 6.848 15.488 15.488c0 4.8-0.128 9.472-0.576 14.336C686.72 785.28 680 791.488 672 791.488" p-id="2388" fill="#1afa29"></path><path d="M488.704 505.536 411.136 505.536c-8.576 0-15.488-6.912-15.488-15.488S402.56 474.56 411.136 474.56l77.568 0c8.576 0 15.552 6.912 15.552 15.488C504.192 498.688 497.344 505.536 488.704 505.536" p-id="2389" fill="#1afa29"></path><path d="M488.704 443.52 411.136 443.52c-8.576 0-15.488-6.912-15.488-15.488S402.56 412.48 411.136 412.48l77.568 0c8.576 0 15.552 6.912 15.552 15.488C504.192 436.608 497.344 443.52 488.704 443.52" p-id="2390" fill="#1afa29"></path><path d="M488.704 288.384 411.136 288.384c-8.576 0-15.488-6.976-15.488-15.488 0-8.576 6.912-15.552 15.488-15.552l77.568 0c8.576 0 15.552 6.912 15.552 15.552C504.192 281.408 497.344 288.384 488.704 288.384" p-id="2391" fill="#1afa29"></path><path d="M488.704 226.304 411.136 226.304c-8.576 0-15.488-6.912-15.488-15.488 0-8.576 6.912-15.552 15.488-15.552l77.568 0c8.576 0 15.552 6.912 15.552 15.552C504.192 219.392 497.344 226.304 488.704 226.304" p-id="2392" fill="#1afa29"></path><path d="M535.232 365.952 411.136 365.952c-8.576 0-15.488-6.976-15.488-15.552 0-8.512 6.912-15.488 15.488-15.488l124.096 0c8.576 0 15.488 6.976 15.488 15.488C550.72 358.976 543.872 365.952 535.232 365.952" p-id="2393" fill="#1afa29"></path></svg>