<?xml version="1.0" standalone="no"?><!DOCTYPE svg PUBLIC "-//W3C//DTD SVG 1.1//EN" "http://www.w3.org/Graphics/SVG/1.1/DTD/svg11.dtd"><svg t="1538987722040" class="icon" style="" viewBox="0 0 1024 1024" version="1.1" xmlns="http://www.w3.org/2000/svg" p-id="4224" xmlns:xlink="http://www.w3.org/1999/xlink" width="200" height="200"><defs><style type="text/css"></style></defs><path d="M533.6 489.5V128c100.4 0 220.9 60.3 220.9 180.8S634.1 489.5 533.6 489.5z m160.8-180.7c0-52.7-41.7-94.8-100.4-112.1v224.1c58.6-17.2 100.4-59.3 100.4-112z m-381.7-40.3c120.5 0 180.8 120.5 180.8 220.9H132c-1.8-100.3 60.2-220.9 180.7-220.9z m0 60.3c-54.5 0-96.8 41-112.8 101.3H425c-17-59.2-59.2-101.3-112.3-101.3z m220.9 200.9h361.5c0 100.4-60.3 220.9-180.8 220.9S533.6 630.1 533.6 529.7z m180.8 160.7c52.7 0 94.8-41.7 112.1-100.4H602.3c17.3 58.6 59.4 100.4 112.1 100.4zM493.5 529.7v361.5c-100.4 0-220.9-60.3-220.9-180.8s120.5-180.7 220.9-180.7zM332.8 710.4c0 52.7 41.7 94.8 100.4 112.1V598.3c-58.6 17.2-100.4 59.4-100.4 112.1z" fill="#1afa29" p-id="4225"></path></svg>